<svg width="15" height="15" viewBox="0 0 15 15" fill="none" xmlns="http://www.w3.org/2000/svg">
<path d="M6.42857 10.4003L3.75 7.72123L4.50696 6.96427L6.42857 8.88534L10.492 4.82141L11.25 5.57945L6.42857 10.4003Z" fill="#4589FF"/>
<path d="M7.5 0C6.01664 0 4.56659 0.439867 3.33323 1.26398C2.09986 2.08809 1.13856 3.25943 0.570907 4.62987C0.00324962 6.00032 -0.145275 7.50832 0.144114 8.96317C0.433503 10.418 1.14781 11.7544 2.1967 12.8033C3.2456 13.8522 4.58197 14.5665 6.03682 14.8559C7.49168 15.1453 8.99968 14.9967 10.3701 14.4291C11.7406 13.8614 12.9119 12.9001 13.736 11.6668C14.5601 10.4334 15 8.98336 15 7.5C15 5.51087 14.2098 3.60322 12.8033 2.1967C11.3968 0.790176 9.48913 0 7.5 0ZM7.5 13.9286C6.22855 13.9286 4.98565 13.5515 3.92848 12.8452C2.87131 12.1388 2.04734 11.1348 1.56078 9.9601C1.07421 8.78544 0.946907 7.49287 1.19495 6.24585C1.443 4.99883 2.05526 3.85336 2.95432 2.95431C3.85337 2.05526 4.99883 1.443 6.24585 1.19495C7.49287 0.946904 8.78544 1.07421 9.96011 1.56077C11.1348 2.04734 12.1388 2.8713 12.8452 3.92848C13.5515 4.98565 13.9286 6.22855 13.9286 7.5C13.9286 9.20496 13.2513 10.8401 12.0457 12.0457C10.8401 13.2513 9.20496 13.9286 7.5 13.9286Z" fill="#4589FF"/>
</svg>
